<?xml version="1.0" encoding="UTF-8"?>
<svg width="800" height="600" viewBox="0 0 800 600" fill="none" xmlns="http://www.w3.org/2000/svg">
  <!-- 背景山水 -->
  <path d="M0 400 L200 200 L400 350 L600 150 L800 300 L800 600 L0 600 Z" fill="#E8F4F8" opacity="0.5"/>
  <path d="M100 450 L300 250 L500 400 L700 200 L800 300 L800 600 L0 600 L0 500 Z" fill="#D1E8F0" opacity="0.3"/>
  
  <!-- 竹子 -->
  <g transform="translate(600,200)">
    <path d="M0 0 L0 300" stroke="#4A8C6F" stroke-width="8"/>
    <path d="M0 50 L30 30" stroke="#4A8C6F" stroke-width="4"/>
    <path d="M0 100 L-20 80" stroke="#4A8C6F" stroke-width="4"/>
    <path d="M0 150 L25 130" stroke="#4A8C6F" stroke-width="4"/>
    <path d="M0 200 L-15 180" stroke="#4A8C6F" stroke-width="4"/>
  </g>
  
  <!-- 飞鸟 -->
  <path d="M300 100 C320 90, 340 110, 360 100 C340 105, 320 85, 300 100" fill="#666"/>
  <path d="M400 150 C420 140, 440 160, 460 150 C440 155, 420 135, 400 150" fill="#666"/>
  
  <!-- 书卷 -->
  <g transform="translate(200,300)">
    <rect x="0" y="0" width="200" height="30" rx="5" fill="#F5DEB3"/>
    <path d="M0 15 C50 0, 150 0, 200 15" stroke="#D2B48C" stroke-width="2" fill="none"/>
    <path d="M0 20 C50 5, 150 5, 200 20" stroke="#D2B48C" stroke-width="2" fill="none"/>
  </g>
  
  <!-- 毛笔 -->
  <g transform="translate(450,250) rotate(-45)">
    <rect x="0" y="0" width="120" height="15" rx="5" fill="#4A4A4A"/>
    <path d="M120 7.5 L150 7.5 L140 0 L140 15 Z" fill="#333"/>
    <path d="M150 0 L170 7.5 L150 15" fill="#111"/>
  </g>
</svg> 