<?xml version="1.0" encoding="UTF-8"?>
<svg width="800" height="600" viewBox="0 0 800 600" fill="none" xmlns="http://www.w3.org/2000/svg">
  <!-- 背景装饰 -->
  <circle cx="400" cy="300" r="200" stroke="#b84592" stroke-width="1" opacity="0.1"/>
  <circle cx="400" cy="300" r="150" stroke="#b84592" stroke-width="1" opacity="0.1"/>
  
  <!-- 人物图标 -->
  <g transform="translate(300,200)">
    <!-- 中心人物 -->
    <circle cx="100" cy="100" r="40" fill="#b84592"/>
    <circle cx="100" cy="70" r="20" fill="#b84592"/>
    
    <!-- 周围人物 -->
    <g transform="translate(0,0)" opacity="0.8">
      <circle cx="20" cy="100" r="30" fill="#b84592"/>
      <circle cx="20" cy="80" r="15" fill="#b84592"/>
    </g>
    
    <g transform="translate(140,0)" opacity="0.8">
      <circle cx="40" cy="100" r="30" fill="#b84592"/>
      <circle cx="40" cy="80" r="15" fill="#b84592"/>
    </g>
    
    <g transform="translate(60,-40)" opacity="0.8">
      <circle cx="40" cy="100" r="30" fill="#b84592"/>
      <circle cx="40" cy="80" r="15" fill="#b84592"/>
    </g>
    
    <g transform="translate(60,80)" opacity="0.8">
      <circle cx="40" cy="100" r="30" fill="#b84592"/>
      <circle cx="40" cy="80" r="15" fill="#b84592"/>
    </g>
  </g>
  
  <!-- 连接线 -->
  <path d="M400,300 L320,300" stroke="#b84592" stroke-width="2" opacity="0.5"/>
  <path d="M400,300 L480,300" stroke="#b84592" stroke-width="2" opacity="0.5"/>
  <path d="M400,300 L400,260" stroke="#b84592" stroke-width="2" opacity="0.5"/>
  <path d="M400,300 L400,380" stroke="#b84592" stroke-width="2" opacity="0.5"/>
  
  <!-- 装饰元素 -->
  <circle cx="200" cy="150" r="5" fill="#b84592" opacity="0.3">
    <animate attributeName="r" values="5;8;5" dur="2s" repeatCount="indefinite"/>
  </circle>
  <circle cx="600" cy="450" r="5" fill="#b84592" opacity="0.3">
    <animate attributeName="r" values="5;8;5" dur="2.5s" repeatCount="indefinite"/>
  </circle>
  <circle cx="400" cy="100" r="3" fill="#b84592" opacity="0.3">
    <animate attributeName="r" values="3;6;3" dur="1.8s" repeatCount="indefinite"/>
  </circle>
  <circle cx="700" cy="300" r="3" fill="#b84592" opacity="0.3">
    <animate attributeName="r" values="3;6;3" dur="2.2s" repeatCount="indefinite"/>
  </circle>
</svg> 