<?xml version="1.0" encoding="UTF-8"?>
<svg width="800" height="600" viewBox="0 0 800 600" fill="none" xmlns="http://www.w3.org/2000/svg">
  <!-- 背景波纹 -->
  <path d="M100,300 Q250,250 400,300 Q550,350 700,300" stroke="#b84592" stroke-width="2" fill="none" opacity="0.1"/>
  <path d="M100,320 Q250,270 400,320 Q550,370 700,320" stroke="#b84592" stroke-width="2" fill="none" opacity="0.1"/>
  <path d="M100,340 Q250,290 400,340 Q550,390 700,340" stroke="#b84592" stroke-width="2" fill="none" opacity="0.1"/>
  
  <!-- 主要音频波形 -->
  <g transform="translate(300,250)">
    <!-- 音频波形动画 -->
    <rect x="0" y="-60" width="20" height="120" rx="10" fill="#b84592" opacity="0.8">
      <animate attributeName="height" values="120;40;120" dur="1.5s" repeatCount="indefinite"/>
      <animate attributeName="y" values="-60;-20;-60" dur="1.5s" repeatCount="indefinite"/>
    </rect>
    <rect x="40" y="-40" width="20" height="80" rx="10" fill="#b84592" opacity="0.6">
      <animate attributeName="height" values="80;140;80" dur="2s" repeatCount="indefinite"/>
      <animate attributeName="y" values="-40;-70;-40" dur="2s" repeatCount="indefinite"/>
    </rect>
    <rect x="80" y="-50" width="20" height="100" rx="10" fill="#b84592" opacity="0.7">
      <animate attributeName="height" values="100;60;100" dur="1.8s" repeatCount="indefinite"/>
      <animate attributeName="y" values="-50;-30;-50" dur="1.8s" repeatCount="indefinite"/>
    </rect>
    <rect x="120" y="-30" width="20" height="60" rx="10" fill="#b84592" opacity="0.5">
      <animate attributeName="height" values="60;100;60" dur="1.6s" repeatCount="indefinite"/>
      <animate attributeName="y" values="-30;-50;-30" dur="1.6s" repeatCount="indefinite"/>
    </rect>
    <rect x="160" y="-45" width="20" height="90" rx="10" fill="#b84592" opacity="0.7">
      <animate attributeName="height" values="90;40;90" dur="1.7s" repeatCount="indefinite"/>
      <animate attributeName="y" values="-45;-20;-45" dur="1.7s" repeatCount="indefinite"/>
    </rect>
  </g>
  
  <!-- 装饰音符 -->
  <path d="M200,150 Q220,130 220,110 L225,110 Q225,132 205,152" fill="#b84592"/>
  <circle cx="200" cy="150" r="8" fill="#b84592"/>
  
  <path d="M600,200 Q620,180 620,160 L625,160 Q625,182 605,202" fill="#b84592"/>
  <circle cx="600" cy="200" r="8" fill="#b84592"/>
  
  <!-- 装饰圆点 -->
  <circle cx="150" cy="150" r="4" fill="#b84592" opacity="0.5"/>
  <circle cx="650" cy="450" r="4" fill="#b84592" opacity="0.5"/>
  <circle cx="400" cy="100" r="3" fill="#b84592" opacity="0.5"/>
  <circle cx="700" cy="300" r="3" fill="#b84592" opacity="0.5"/>
</svg> 